# xmcd
#
# Track frame offsets:
#	150
#	16409
#	33955
#	50164
#	65617
#	81748
#	102303
#	123137
#	139075
#	153232
#
# Disc length: 2292 seconds
#
# Revision: 4
# Processed by: cddbd v1.5.2PL0 Copyright (c) Steve Scherf et al.
# Submitted via: EZCDAudioConverter 7.1.5.1
#
DISCID=8608f20a
DTITLE=Reba McEntire - All the Women I Am
DYEAR=2010
DGENRE=Country
TTITLE0=Turn On The Radio
TTITLE1=If I Were A Boy
TTITLE2=The Bridge You Burn
TTITLE3=Cry
TTITLE4=When Love Gets A Hold Of You
TTITLE5=Somebody's Chelsea
TTITLE6=All The Women I Am
TTITLE7=The Day She Got Divorced
TTITLE8=A Little Want To
TTITLE9=When You Have A Child
EXTD=
EXTT0=
EXTT1=
EXTT2=
EXTT3=
EXTT4=
EXTT5=
EXTT6=
EXTT7=
EXTT8=
EXTT9=
PLAYORDER=
